<svg width="136" height="39" viewBox="0 0 136 39" fill="none" xmlns="http://www.w3.org/2000/svg">
<path d="M15.522 16.624C15.522 17.6813 15.2793 18.652 14.794 19.536C14.3087 20.4027 13.5633 21.1047 12.558 21.642C11.5527 22.1793 10.3047 22.448 8.814 22.448H6.058V29H1.612V10.748H8.814C10.27 10.748 11.5007 10.9993 12.506 11.502C13.5113 12.0047 14.2653 12.698 14.768 13.582C15.2707 14.466 15.522 15.48 15.522 16.624ZM8.476 18.912C9.32533 18.912 9.958 18.7127 10.374 18.314C10.79 17.9153 10.998 17.352 10.998 16.624C10.998 15.896 10.79 15.3327 10.374 14.934C9.958 14.5353 9.32533 14.336 8.476 14.336H6.058V18.912H8.476ZM22.2826 25.568H28.1066V29H17.8366V10.748H22.2826V25.568ZM41.5892 25.776H34.7772L33.6852 29H29.0312L35.6352 10.748H40.7832L47.3872 29H42.6812L41.5892 25.776ZM40.4452 22.344L38.1832 15.662L35.9472 22.344H40.4452ZM65.0492 10.748L58.7312 22.968V29H54.2852V22.968L47.9672 10.748H53.0112L56.5472 18.392L60.0572 10.748H65.0492ZM71.2865 25.568H77.1105V29H66.8405V10.748H71.2865V25.568ZM83.6771 10.748V29H79.2311V10.748H83.6771ZM93.5031 29.182C92.1684 29.182 90.9724 28.9653 89.9151 28.532C88.8578 28.0987 88.0084 27.4573 87.3671 26.608C86.7431 25.7587 86.4138 24.736 86.3791 23.54H91.1111C91.1804 24.216 91.4144 24.736 91.8131 25.1C92.2118 25.4467 92.7318 25.62 93.3731 25.62C94.0318 25.62 94.5518 25.4727 94.9331 25.178C95.3144 24.866 95.5051 24.4413 95.5051 23.904C95.5051 23.4533 95.3491 23.0807 95.0371 22.786C94.7424 22.4913 94.3698 22.2487 93.9191 22.058C93.4858 21.8673 92.8618 21.6507 92.0471 21.408C90.8684 21.044 89.9064 20.68 89.1611 20.316C88.4158 19.952 87.7744 19.4147 87.2371 18.704C86.6998 17.9933 86.4311 17.066 86.4311 15.922C86.4311 14.2233 87.0464 12.8973 88.2771 11.944C89.5078 10.9733 91.1111 10.488 93.0871 10.488C95.0978 10.488 96.7184 10.9733 97.9491 11.944C99.1798 12.8973 99.8384 14.232 99.9251 15.948H95.1151C95.0804 15.3587 94.8638 14.8993 94.4651 14.57C94.0664 14.2233 93.5551 14.05 92.9311 14.05C92.3938 14.05 91.9604 14.1973 91.6311 14.492C91.3018 14.7693 91.1371 15.1767 91.1371 15.714C91.1371 16.3033 91.4144 16.7627 91.9691 17.092C92.5238 17.4213 93.3904 17.7767 94.5691 18.158C95.7478 18.5567 96.7011 18.938 97.4291 19.302C98.1744 19.666 98.8158 20.1947 99.3531 20.888C99.8904 21.5813 100.159 22.474 100.159 23.566C100.159 24.606 99.8904 25.5507 99.3531 26.4C98.8331 27.2493 98.0704 27.9253 97.0651 28.428C96.0598 28.9307 94.8724 29.182 93.5031 29.182ZM116.025 10.748V14.31H111.189V29H106.743V14.31H101.907V10.748H116.025Z" fill="black"/>
<path d="M120 13.14V27.14L131 20.14L120 13.14Z" fill="#DB676C"/>
</svg>
